<svg preserveAspectRatio="none" width="100%" height="100%" overflow="visible" style="display: block;" viewBox="0 0 124.205 27.8809" fill="none" xmlns="http://www.w3.org/2000/svg">
<path id="Union" d="M100.824 0.472711C100.939 0.472711 100.981 0.558445 100.953 0.730009C100.953 0.901572 100.91 0.987307 100.824 0.987307C99.7953 0.987448 98.924 1.41657 98.2093 2.2738C97.5231 3.13162 97.0515 4.30531 96.7942 5.7922L94.5623 18.5733C94.0475 21.461 92.7747 23.7334 90.7447 25.3917C88.7431 27.0502 86.3263 27.8809 83.4955 27.8809C80.9512 27.8807 78.9489 27.2214 77.4909 25.9063C76.0332 24.5625 75.3038 22.7319 75.3038 20.4163C75.3039 19.7017 75.363 19.0154 75.4774 18.3579L78.0503 3.86246C78.1646 3.11992 78.2207 2.66126 78.2209 2.48921C78.2209 1.86027 78.036 1.45811 77.6644 1.28649C77.3213 1.08633 76.662 0.987307 75.6898 0.987307C75.6045 0.986762 75.5611 0.901025 75.5611 0.730009C75.5611 0.558476 75.5907 0.472711 75.6479 0.472711L77.7063 0.514596C78.85 0.571784 79.737 0.60136 80.366 0.60136C81.1663 0.601352 82.1666 0.571738 83.3668 0.514596L85.2128 0.472711C85.2982 0.472979 85.328 0.558894 85.2996 0.730009C85.2996 0.901168 85.2697 0.986903 85.2128 0.987307C83.9833 0.987307 83.1392 1.20167 82.6817 1.63055C82.2242 2.05946 81.8813 2.90351 81.6525 4.16165L79.3368 17.1133C79.1653 18.1713 79.0795 19.1307 79.0795 19.9885C79.0796 22.1328 79.5807 23.7354 80.5814 24.7934C81.5821 25.8503 83.0112 26.3789 84.8687 26.379C87.1277 26.379 89.0168 25.6636 90.5323 24.2339C92.0472 22.8043 93.0042 20.8451 93.4045 18.3579L95.6782 5.5349C95.7639 5.02074 95.8068 4.54832 95.8069 4.11976C95.8069 3.09038 95.563 2.31578 95.0769 1.80109C94.6194 1.25843 93.933 0.987307 93.0185 0.987307C92.9328 0.987272 92.8899 0.901537 92.8899 0.730009C92.9184 0.558525 92.9613 0.472763 93.0185 0.472711L94.8196 0.514596C95.7918 0.571784 96.5501 0.60136 97.0934 0.60136C97.6366 0.601353 98.3656 0.571771 99.2804 0.514596L100.824 0.472711ZM12.7265 0C14.3564 1.76312e-05 16.0017 0.342954 17.6601 1.02919C18.06 1.2293 18.2155 1.4734 18.1298 1.7592L17.5314 7.03381C17.5029 7.14785 17.4163 7.207 17.2741 7.20734C17.1312 7.20734 17.0454 7.14819 17.0168 7.03381C16.6737 5.14709 16.0438 3.64608 15.129 2.5311C14.2426 1.38733 13.1118 0.816772 11.7392 0.816772C10.6816 0.816896 9.79419 1.10068 9.07949 1.67244C8.39356 2.21552 7.8951 2.88872 7.58058 3.68894C7.26605 4.48957 7.10787 5.27746 7.10787 6.0495C7.10805 6.90687 7.30909 7.67922 7.70923 8.36518C8.10943 9.05102 8.58134 9.63851 9.12437 10.1244C9.69614 10.6103 10.5249 11.2675 11.6106 12.096C13.2973 13.3539 14.5704 14.5117 15.4282 15.5695C16.3143 16.5986 16.7593 17.8426 16.7595 19.3004C16.7595 19.815 16.73 20.2038 16.6728 20.4612C16.3008 22.6051 15.2127 24.3636 13.4117 25.7358C11.639 27.1079 9.33687 27.7942 6.50651 27.7942C5.42043 27.7941 4.37743 27.6787 3.37705 27.4501C2.37679 27.2501 1.34686 26.88 0.289474 26.3372C0.0321278 26.1656 -0.0536063 25.8921 0.0321758 25.5204L1.14514 19.6025C1.14514 19.4596 1.21758 19.3871 1.36055 19.3871C1.53195 19.3872 1.61785 19.4596 1.61785 19.6025C1.98956 21.9181 2.67568 23.7192 3.67623 25.0058C4.67702 26.2639 5.99261 26.8936 7.62247 26.8936C8.90895 26.8936 10.0106 26.4943 10.9255 25.6939C11.8402 24.8935 12.4109 23.7486 12.6398 22.2623C12.697 22.005 12.7265 21.6323 12.7265 21.1463C12.7265 19.7738 12.3274 18.6001 11.5268 17.6279C10.7263 16.6273 9.58163 15.5848 8.09518 14.4984C7.00935 13.6698 6.15115 12.9832 5.5222 12.4401C4.92184 11.8969 4.40428 11.2536 3.97542 10.5103C3.54651 9.73829 3.33217 8.86467 3.33217 7.89247C3.33219 7.49222 3.37506 7.0767 3.46082 6.64787C3.88981 4.50378 4.97804 2.86094 6.72193 1.71732C8.49475 0.573555 10.4962 0 12.7265 0ZM37.0801 0C38.2524 1.5284e-05 39.4395 0.128616 40.6404 0.385947C41.8412 0.643279 42.7712 0.959682 43.4288 1.33137C43.5991 1.44515 43.6991 1.55866 43.728 1.67244C43.7851 1.78668 43.7983 2.00174 43.7699 2.31568L43.1715 7.72194C43.1428 7.83568 43.0563 7.89217 42.9142 7.89247C42.8001 7.89247 42.7275 7.83578 42.6988 7.72194C42.2985 5.57739 41.4544 3.93215 40.1677 2.78839C38.9096 1.64484 37.307 1.07407 35.3628 1.07407C32.79 1.07446 30.6028 2.08997 28.8017 4.11976C27.0007 6.14985 25.8295 8.92355 25.2863 12.4401C25.1148 13.6405 25.029 14.8122 25.029 15.9555C25.029 18.0428 25.3128 19.932 25.8847 21.619C26.485 23.3054 27.3429 24.6351 28.4576 25.6071C29.5728 26.5507 30.8751 27.0223 32.362 27.0223C35.4215 27.0222 38.4385 24.8626 41.4123 20.545C41.4409 20.4883 41.4977 20.4613 41.5828 20.4612C41.6685 20.4612 41.7411 20.4879 41.7982 20.545C41.8834 20.5734 41.9127 20.6169 41.885 20.6736L40.6823 25.5204C40.5679 25.892 40.4689 26.136 40.3831 26.2504C40.2973 26.3648 40.1391 26.4505 39.9104 26.5077C37.3371 27.3654 34.7352 27.7942 32.1047 27.7942C28.1873 27.7942 25.3122 26.7654 23.4822 24.7066C21.6811 22.6195 20.7808 20.017 20.7806 16.9009C20.7806 16.0145 20.8826 14.9694 21.0827 13.7684C21.5688 10.9953 22.6247 8.56441 24.2541 6.47733C25.884 4.38997 27.8293 2.7876 30.0882 1.67244C32.3471 0.557281 34.6782 0 37.0801 0ZM61.1824 0C63.2401 0.000197208 65.0125 0.472138 66.4989 1.41514C67.9856 2.33009 69.1166 3.60303 69.8886 5.23273C70.6892 6.86258 71.0883 8.70886 71.0883 10.7676C71.0882 11.5681 70.9892 12.5977 70.7891 13.8552C70.303 16.6286 69.3007 19.0724 67.7853 21.1882C66.2699 23.2756 64.4399 24.9075 62.2953 26.0799C60.1516 27.2229 57.9503 27.794 55.6923 27.7942C53.6908 27.7942 51.9598 27.3359 50.5015 26.4209C49.0434 25.4774 47.9286 24.1911 47.1566 22.5615C46.3846 20.903 45.9988 19.0434 45.9988 16.9847C45.9988 15.8987 46.0979 14.8555 46.298 13.8552C46.7555 11.2246 47.6986 8.85053 49.1282 6.73463C50.5865 4.61867 52.3604 2.97344 54.4477 1.80109C56.5634 0.600472 58.8094 0 61.1824 0ZM113.097 0.344061C117.758 0.344061 120.089 1.87398 120.089 4.93354C120.089 5.30523 120.046 5.734 119.96 6.22003C119.674 7.79253 118.975 9.19412 117.86 10.4236C116.894 11.4909 115.723 12.3404 114.35 12.9786C115.744 16.3533 116.956 19.0201 117.988 20.9758C119.103 23.0339 120.133 24.5218 121.076 25.4366C122.048 26.3222 123.048 26.7646 124.077 26.765C124.163 26.765 124.205 26.8507 124.205 27.0223C124.205 27.1938 124.163 27.2796 124.077 27.2796H118.246C117.817 27.2796 117.243 26.7785 116.528 25.7777C115.814 24.7769 114.985 23.2329 114.042 21.1463C113.177 19.1729 112.263 16.7767 111.296 13.9599C110.473 14.1161 109.628 14.1993 108.765 14.1993C108.435 14.1992 108.163 14.1824 107.948 14.1634L106.236 23.8061C106.122 24.6064 106.063 25.0783 106.063 25.2212C106.063 25.8214 106.235 26.2371 106.578 26.4658C106.949 26.6659 107.622 26.765 108.594 26.765C108.708 26.765 108.765 26.8507 108.765 27.0223C108.765 27.1938 108.722 27.2796 108.636 27.2796C107.779 27.2796 107.122 27.2663 106.664 27.2377L103.834 27.1928L101.004 27.2377C100.518 27.2663 99.8448 27.2796 98.9872 27.2796C98.8728 27.2796 98.8167 27.1938 98.8167 27.0223C98.8167 26.8507 98.8728 26.765 98.9872 26.765C99.8734 26.765 100.546 26.6925 101.004 26.5496C101.46 26.378 101.804 26.0936 102.033 25.6939C102.262 25.2937 102.46 24.6635 102.631 23.8061L106.15 3.94624C106.264 3.20318 106.32 2.73119 106.32 2.5311C106.32 1.93111 106.135 1.53157 105.764 1.33137C105.392 1.10262 104.719 0.987307 103.747 0.987307C103.633 0.987096 103.577 0.901362 103.577 0.730009C103.577 0.558703 103.633 0.472921 103.747 0.472711L105.722 0.514596C106.864 0.57171 107.793 0.601325 108.507 0.60136C108.965 0.60136 109.396 0.588067 109.797 0.559474C110.225 0.530934 110.596 0.501251 110.91 0.472711C111.738 0.386981 112.468 0.344115 113.097 0.344061ZM59.5069 1.02919C57.2775 1.02958 55.3471 1.97312 53.7177 3.85947C52.1165 5.74665 51.0315 8.32175 50.4596 11.5814C50.2023 12.9539 50.0737 14.3124 50.0737 15.6563C50.0737 17.7149 50.3575 19.588 50.9293 21.275C51.5297 22.9332 52.3874 24.249 53.5023 25.2212C54.6175 26.1934 55.9626 26.6782 57.5353 26.6782C59.7084 26.6782 61.6109 25.7484 63.2407 23.8898C64.8699 22.0029 65.9852 19.4161 66.5856 16.129C66.8429 14.6711 66.9715 13.2691 66.9716 11.9255C66.9716 8.72294 66.3123 6.10506 64.9969 4.07488C63.6817 2.04538 61.8512 1.02919 59.5069 1.02919ZM112.498 1.15784C111.784 1.15784 111.282 1.21699 110.996 1.33137C110.711 1.4171 110.467 1.65855 110.266 2.05838C110.095 2.43011 109.923 3.0894 109.752 4.033L108.157 12.9846C108.545 13.0777 109.034 13.1252 109.623 13.1252C111.539 13.1252 112.996 12.6668 113.997 11.7519C114.998 10.8369 115.671 9.34988 116.014 7.29111C116.157 6.43382 116.229 5.74719 116.229 5.23273C116.229 3.83213 115.886 2.80267 115.2 2.14515C114.514 1.48767 113.613 1.15803 112.498 1.15784Z" fill="var(--fill-0, black)"/>
</svg>
